<svg xmlns="http://www.w3.org/2000/svg" viewBox="0 0 200 200" width="200" height="200" shape-rendering="crispEdges">
  <!-- Background -->
  <rect width="200" height="200" fill="white"/>
  <!-- Top-left finder pattern -->
  <rect x="14" y="14" width="56" height="56" rx="4" fill="#1a1a1a"/>
  <rect x="21" y="21" width="42" height="42" rx="2" fill="white"/>
  <rect x="28" y="28" width="28" height="28" rx="2" fill="#1a1a1a"/>
  <!-- Top-right finder pattern -->
  <rect x="130" y="14" width="56" height="56" rx="4" fill="#1a1a1a"/>
  <rect x="137" y="21" width="42" height="42" rx="2" fill="white"/>
  <rect x="144" y="28" width="28" height="28" rx="2" fill="#1a1a1a"/>
  <!-- Bottom-left finder pattern -->
  <rect x="14" y="130" width="56" height="56" rx="4" fill="#1a1a1a"/>
  <rect x="21" y="137" width="42" height="42" rx="2" fill="white"/>
  <rect x="28" y="144" width="28" height="28" rx="2" fill="#1a1a1a"/>
  <!-- Data modules - row 1 -->
  <rect x="84" y="14" width="8" height="8" fill="#1a1a1a"/>
  <rect x="100" y="14" width="8" height="8" fill="#1a1a1a"/>
  <rect x="116" y="14" width="8" height="8" fill="#1a1a1a"/>
  <!-- Data modules - row 2 -->
  <rect x="84" y="28" width="8" height="8" fill="#1a1a1a"/>
  <rect x="108" y="28" width="8" height="8" fill="#1a1a1a"/>
  <!-- Data modules - row 3 -->
  <rect x="92" y="42" width="8" height="8" fill="#1a1a1a"/>
  <rect x="116" y="42" width="8" height="8" fill="#1a1a1a"/>
  <!-- Data modules - center block -->
  <rect x="84" y="84" width="8" height="8" fill="#1a1a1a"/>
  <rect x="100" y="84" width="8" height="8" fill="#1a1a1a"/>
  <rect x="116" y="84" width="8" height="8" fill="#1a1a1a"/>
  <rect x="84" y="100" width="8" height="8" fill="#1a1a1a"/>
  <rect x="108" y="100" width="8" height="8" fill="#1a1a1a"/>
  <rect x="84" y="116" width="8" height="8" fill="#1a1a1a"/>
  <rect x="100" y="116" width="8" height="8" fill="#1a1a1a"/>
  <rect x="116" y="116" width="8" height="8" fill="#1a1a1a"/>
  <!-- Data modules - right column -->
  <rect x="130" y="84" width="8" height="8" fill="#1a1a1a"/>
  <rect x="146" y="84" width="8" height="8" fill="#1a1a1a"/>
  <rect x="162" y="84" width="8" height="8" fill="#1a1a1a"/>
  <rect x="138" y="100" width="8" height="8" fill="#1a1a1a"/>
  <rect x="162" y="100" width="8" height="8" fill="#1a1a1a"/>
  <rect x="130" y="116" width="8" height="8" fill="#1a1a1a"/>
  <rect x="154" y="116" width="8" height="8" fill="#1a1a1a"/>
  <!-- Data modules - bottom rows -->
  <rect x="84" y="130" width="8" height="8" fill="#1a1a1a"/>
  <rect x="100" y="130" width="8" height="8" fill="#1a1a1a"/>
  <rect x="116" y="130" width="8" height="8" fill="#1a1a1a"/>
  <rect x="92" y="146" width="8" height="8" fill="#1a1a1a"/>
  <rect x="116" y="146" width="8" height="8" fill="#1a1a1a"/>
  <rect x="84" y="162" width="8" height="8" fill="#1a1a1a"/>
  <rect x="108" y="162" width="8" height="8" fill="#1a1a1a"/>
  <rect x="116" y="162" width="8" height="8" fill="#1a1a1a"/>
  <!-- Timing patterns -->
  <rect x="84" y="56" width="8" height="8" fill="#1a1a1a"/>
  <rect x="100" y="56" width="8" height="8" fill="#1a1a1a"/>
  <rect x="116" y="56" width="8" height="8" fill="#1a1a1a"/>
  <rect x="84" y="70" width="8" height="8" fill="#1a1a1a"/>
  <rect x="108" y="70" width="8" height="8" fill="#1a1a1a"/>
  <rect x="56" y="84" width="8" height="8" fill="#1a1a1a"/>
  <rect x="56" y="100" width="8" height="8" fill="#1a1a1a"/>
  <rect x="56" y="116" width="8" height="8" fill="#1a1a1a"/>
  <rect x="70" y="84" width="8" height="8" fill="#1a1a1a"/>
  <rect x="70" y="108" width="8" height="8" fill="#1a1a1a"/>
  <!-- Alignment pattern (center) -->
  <rect x="138" y="138" width="24" height="24" rx="2" fill="#1a1a1a"/>
  <rect x="142" y="142" width="16" height="16" rx="1" fill="white"/>
  <rect x="146" y="146" width="8" height="8" fill="#1a1a1a"/>
</svg>
