<svg preserveAspectRatio="none" width="100%" height="100%" overflow="visible" style="display: block;" viewBox="0 0 48.2339 14" fill="none" xmlns="http://www.w3.org/2000/svg">
<g id="Logo_Horizontal">
<g id="Vector">
<path d="M3.77551 10.9H0.4C0.179086 10.9 0 10.7209 0 10.5V9.9C0 9.67909 0.179086 9.5 0.4 9.5H2.76641C3.39462 9.5 3.99549 9.24304 4.42945 8.7888L8.27284 4.76581C8.80114 4.21282 9.53264 3.9 10.2974 3.9H14.6C14.8209 3.9 15 4.07909 15 4.3V6.4C15 6.62091 14.8209 6.8 14.6 6.8H10.9062C10.3501 6.8 9.80863 6.97831 9.36133 7.30875L5.08272 10.4695C4.70424 10.7491 4.24608 10.9 3.77551 10.9Z" fill="var(--fill-0, #12141D)"/>
<path d="M0 7.4V1.2C0 0.537258 0.537258 0 1.2 0H14.4C14.7314 0 15 0.268629 15 0.6V1.5C15 1.72091 14.8209 1.9 14.6 1.9H9.61467C8.65588 1.9 7.74761 2.32991 7.13981 3.07143L3.40006 7.63393C3.21012 7.86565 2.92629 8 2.62667 8H0.6C0.268629 8 0 7.73137 0 7.4Z" fill="var(--fill-0, #12141D)"/>
<path d="M15 9.4V12.8C15 13.4627 14.4627 14 13.8 14L0.6 14C0.268629 14 -2.89694e-08 13.7314 0 13.4L5.24535e-08 12.8C7.17664e-08 12.5791 0.179086 12.4 0.4 12.4L4.46343 12.4C4.87928 12.4 5.28662 12.2821 5.63821 12.0601L10.0171 9.29444C10.5286 8.97144 11.121 8.8 11.7259 8.8H14.4C14.7314 8.8 15 9.06863 15 9.4Z" fill="var(--fill-0, #12141D)"/>
</g>
<g id="Xflow">
<path d="M19.2842 10.8233C19.1636 10.8233 19.0923 10.6882 19.1604 10.5886L21.7045 6.8688L19.1846 3.23539C19.1156 3.13591 19.1868 2.9999 19.3079 2.9999H20.6933C20.8274 2.9999 20.9526 3.06715 21.0267 3.17898L22.6559 5.63803L24.3108 3.17787C24.3855 3.06671 24.511 3.00036 24.645 3.00114L26.0054 3.00896C26.1261 3.00966 26.1966 3.14555 26.1276 3.24467L23.5967 6.8795L26.16 10.588C26.2288 10.6875 26.1576 10.8233 26.0366 10.8233H24.6157C24.4802 10.8233 24.3539 10.7547 24.2802 10.641L22.6559 8.13703L21.0158 10.6424C20.9419 10.7553 20.8161 10.8233 20.6812 10.8233H19.2842Z" fill="#12141D"/>
<path d="M27.2634 4.97983C27.2634 4.65876 27.2919 4.38407 27.3489 4.15575C27.4059 3.92387 27.5003 3.71874 27.6322 3.54037C27.7676 3.35843 27.9565 3.22287 28.1988 3.13368C28.4411 3.04449 28.7386 2.9999 29.0914 2.9999H29.5702C29.6807 2.9999 29.7702 3.08944 29.7702 3.1999V3.9504C29.7702 4.06086 29.6807 4.1504 29.5702 4.1504H29.519C29.2339 4.1504 29.0415 4.21105 28.9417 4.33234C28.8455 4.45007 28.7974 4.68552 28.7974 5.0387V5.15642H29.5702C29.6807 5.15642 29.7702 5.24597 29.7702 5.35642V6.11763C29.7702 6.22808 29.6807 6.31763 29.5702 6.31763H28.7974V10.5233C28.7974 10.689 28.6631 10.8233 28.4974 10.8233H27.5634C27.3977 10.8233 27.2634 10.689 27.2634 10.5233V6.31763H26.667C26.5565 6.31763 26.467 6.22808 26.467 6.11763V5.35642C26.467 5.24597 26.5565 5.15642 26.667 5.15642H27.2634V4.97983ZM30.9932 10.8233C30.8276 10.8233 30.6932 10.689 30.6932 10.5233V3.2999C30.6932 3.13422 30.8276 2.9999 30.9932 2.9999H31.9487C32.1143 2.9999 32.2487 3.13422 32.2487 3.2999V10.5233C32.2487 10.689 32.1143 10.8233 31.9487 10.8233H30.9932Z" fill="#12141D"/>
<path d="M36.204 10.9999C35.7942 10.9999 35.4076 10.9303 35.0441 10.7912C34.6807 10.6521 34.3617 10.4559 34.0874 10.2026C33.813 9.94929 33.5956 9.63179 33.4353 9.25007C33.2749 8.86835 33.1947 8.44739 33.1947 7.98719C33.1947 7.38073 33.3319 6.84739 33.6063 6.38719C33.8842 5.92699 34.2495 5.57917 34.702 5.34371C35.1546 5.10826 35.6552 4.99054 36.204 4.99054C36.6102 4.99054 36.9951 5.0601 37.3585 5.19923C37.722 5.33836 38.0409 5.53457 38.3153 5.78786C38.5897 6.03758 38.8071 6.3533 38.9674 6.73502C39.1278 7.11317 39.2079 7.53056 39.2079 7.98719C39.2079 8.59723 39.069 9.13413 38.791 9.5979C38.5131 10.0617 38.1478 10.4113 37.6953 10.6467C37.2463 10.8822 36.7492 10.9999 36.204 10.9999ZM34.6967 7.98719C34.6967 8.49377 34.8357 8.92008 35.1136 9.26612C35.3916 9.6086 35.755 9.77983 36.204 9.77983C36.653 9.77983 37.0147 9.6086 37.2891 9.26612C37.567 8.92008 37.706 8.49377 37.706 7.98719C37.706 7.48418 37.567 7.06144 37.2891 6.71897C37.0147 6.37292 36.653 6.1999 36.204 6.1999C35.755 6.1999 35.3916 6.37292 35.1136 6.71897C34.8357 7.06501 34.6967 7.48775 34.6967 7.98719Z" fill="#12141D"/>
<path d="M41.4493 10.8233C41.271 10.8233 41.1142 10.7053 41.0649 10.5339L39.5914 5.41172C39.5546 5.28387 39.6506 5.15642 39.7836 5.15642H40.8606C40.9982 5.15642 41.1182 5.25007 41.1513 5.38366C41.4877 6.74069 41.7935 8.09252 42.0675 9.46412H42.0782C42.406 8.11074 42.6842 6.74379 43.0019 5.38708C43.0336 5.2518 43.1544 5.15642 43.2934 5.15642H44.5258C44.6641 5.15642 44.7846 5.25096 44.8168 5.38545C45.1439 6.74927 45.426 8.12187 45.7503 9.48552H45.761C46.082 8.12587 46.3509 6.7526 46.6593 5.38928C46.6902 5.25295 46.8115 5.15642 46.9513 5.15642H48.0338C48.1669 5.15642 48.2629 5.28413 48.2259 5.41205L46.7426 10.5346C46.693 10.7056 46.5364 10.8233 46.3584 10.8233H45.1523C44.9695 10.8233 44.8101 10.6994 44.7635 10.5227C44.4474 9.32547 44.078 8.11684 43.9223 6.8902H43.8742C43.6306 8.10936 43.339 9.31343 43.0407 10.5195C42.9966 10.698 42.8364 10.8233 42.6526 10.8233H41.4493Z" fill="#12141D"/>
</g>
</g>
</svg>
